<svg width="151" height="18" viewBox="0 0 151 18" fill="none" xmlns="http://www.w3.org/2000/svg">
<path d="M37.5002 17.6124H40.5067V3.00378H45.0532V0.388916H37.5002V17.6124Z" fill="white"/>
<path d="M8.41982 2.66769C10.5781 2.66769 12.22 3.82769 13.0521 5.76009H16.2071C15.1801 2.24836 12.1562 0.000549316 8.41982 0.000549316C3.55646 0.000549316 0.00390625 4.15411 0.00390625 8.99923C0.00390625 13.8444 3.55646 17.9979 8.41982 17.9979C12.1562 17.9979 15.1801 15.7501 16.2071 12.2383H13.0521C12.2199 14.1707 10.578 15.3307 8.41982 15.3307C5.25372 15.3307 3.04242 12.73 3.04242 8.99923C3.04242 5.26847 5.25372 2.66769 8.41982 2.66769Z" fill="white"/>
<path d="M54.3184 15.1837L49.5536 0.388916H46.4343L52.2515 17.6124H56.3852L62.2023 0.388916H59.0831L54.3184 15.1837Z" fill="white"/>
<path d="M26.2753 0C21.4177 0 17.8918 4.21493 17.8918 9.0005C17.8918 13.9399 21.4197 18 26.2753 18C30.0072 18 33.0749 15.7778 34.0985 12.2591H31.0496C30.2113 14.2292 28.5266 15.3846 26.3283 15.3846C23.422 15.3846 21.3102 13.2338 20.9401 10.0318H34.4438L34.4454 10.0211C35.0071 4.72456 31.8055 0 26.2753 0ZM20.94 7.41771C21.4606 4.57599 23.5364 2.61668 26.2757 2.61668C28.6808 2.59141 31.088 4.17993 31.5159 7.41771H20.94Z" fill="white"/>
<path d="M71.1875 0C66.3299 0 62.804 4.21493 62.804 9.0005C62.804 13.9399 66.3318 18 71.1875 18C74.9193 18 77.9871 15.7778 79.0106 12.2591H75.9617C75.1234 14.2292 73.4387 15.3846 71.2404 15.3846C68.3342 15.3846 66.2223 13.2338 65.8522 10.0318H79.3559L79.3576 10.0211C79.9193 4.72465 76.7176 9.09233e-05 71.1875 9.09233e-05L71.1875 0ZM65.8521 7.41771C66.3727 4.57599 68.4485 2.61668 71.1878 2.61668C73.5929 2.59141 76.0001 4.17993 76.428 7.41771H65.8521Z" fill="white"/>
<path d="M91.4167 0V18" stroke="#4A4E5A"/>
<path d="M117.004 17.6529V0H114.698V7.4876H105.698V0H103.417V17.6529H105.698V9.49587H114.698V17.6529H117.004Z" fill="white"/>
<path d="M134.143 0H131.838V10.9835C131.838 14.281 130.276 15.9174 127.598 15.9174C124.92 15.9174 123.334 14.281 123.334 10.9835V0H121.053V11.0331C121.053 15.595 123.358 18 127.598 18C131.813 18 134.143 15.595 134.143 11.0331V0Z" fill="white"/>
<path d="M138.187 0V17.6529H144.41C148.129 17.6529 150.286 15.7438 150.286 12.7934C150.286 10.6364 149.071 9.14876 146.964 8.65289V8.60331C148.873 7.90909 149.889 6.47107 149.889 4.4876C149.889 1.80992 148.005 0 143.939 0H138.187ZM140.468 1.93388H143.864C146.517 1.93388 147.633 2.95041 147.633 4.80992C147.633 6.59504 146.542 7.71074 143.765 7.71074H140.468V1.93388ZM140.468 9.61983H143.765C146.716 9.61983 147.931 10.7603 147.931 12.6694C147.931 14.6529 146.691 15.719 144.088 15.719H140.468V9.61983Z" fill="white"/>
</svg>
